<?xml version="1.0" encoding="utf-8"?>
<svg viewBox="8.12 8 115.472 32" xmlns="http://www.w3.org/2000/svg">
  <g>
    <g>
      <path d="M30.12,10.2c0,-1.214 -0.986,-2.2 -2.2,-2.2l-17.6,0c-1.214,0 -2.2,0.986 -2.2,2.2l0,27.6c0,1.214 0.986,2.2 2.2,2.2l17.6,0c1.214,0 2.2,-0.986 2.2,-2.2l0,-27.6Z" style="fill:#0d61ff;"/>
      <g>
        <circle cx="23.087" cy="17.988" r="2" style="fill:#fff;"/>
        <circle cx="23.141" cy="30.012" r="2" style="fill:#fff;"/>
        <circle cx="15.12" cy="30.012" r="2" style="fill:#fff;"/>
      </g>
    </g>
    <g>
      <path d="M44.616,36.25c-1.493,0 -2.8,-0.404 -3.92,-1.212c-1.12,-0.809 -1.979,-1.947 -2.576,-3.413l2.016,-0.97c0.32,1.035 0.88,1.849 1.68,2.442c0.8,0.593 1.691,0.889 2.672,0.889c1.365,0 2.4,-0.426 3.104,-1.277c0.704,-0.852 1.056,-2.054 1.056,-3.607l0,-16.852l2.4,0l0,16.852c0,2.243 -0.576,3.995 -1.728,5.256c-1.152,1.262 -2.72,1.892 -4.704,1.892Z" style="fill:#595a5c;fill-rule:nonzero;"/>
      <path d="M61.672,36.25c-1.429,0 -2.709,-0.345 -3.84,-1.035c-1.131,-0.69 -2.016,-1.655 -2.656,-2.894c-0.64,-1.24 -0.96,-2.637 -0.96,-4.189c0,-1.553 0.315,-2.938 0.944,-4.156c0.629,-1.219 1.504,-2.173 2.624,-2.863c1.12,-0.69 2.395,-1.035 3.824,-1.035c1.429,0 2.709,0.345 3.84,1.035c1.131,0.69 2.016,1.65 2.656,2.879c0.64,1.229 0.96,2.62 0.96,4.172c0,1.553 -0.315,2.944 -0.944,4.173c-0.629,1.229 -1.504,2.188 -2.624,2.878c-1.12,0.69 -2.395,1.035 -3.824,1.035Zm-0.064,-2.005c1.024,0 1.936,-0.259 2.736,-0.776c0.8,-0.518 1.424,-1.24 1.872,-2.167c0.448,-0.928 0.672,-1.973 0.672,-3.138c0,-1.164 -0.224,-2.21 -0.672,-3.137c-0.448,-0.927 -1.072,-1.65 -1.872,-2.167c-0.8,-0.518 -1.712,-0.777 -2.736,-0.777c-1.003,0 -1.899,0.259 -2.688,0.777c-0.789,0.517 -1.408,1.234 -1.856,2.151c-0.448,0.916 -0.672,1.956 -0.672,3.121c0,1.186 0.224,2.242 0.672,3.17c0.448,0.927 1.067,1.649 1.856,2.167c0.789,0.517 1.685,0.776 2.688,0.776Z" style="fill:#595a5c;fill-rule:nonzero;"/>
      <path d="M80.712,20.595l2.208,0l-5.44,15.655l-2.4,0l-5.408,-15.655l2.272,0l4.416,12.777l4.352,-12.777Z" style="fill:#595a5c;fill-rule:nonzero;"/>
      <path d="M86.28,36.25l0,-15.655l2.176,0l0,15.655l-2.176,0Zm1.088,-18.598c-0.491,0 -0.901,-0.172 -1.232,-0.517c-0.331,-0.345 -0.496,-0.766 -0.496,-1.262c0,-0.474 0.165,-0.879 0.496,-1.213c0.331,-0.334 0.741,-0.501 1.232,-0.501c0.469,0 0.875,0.167 1.216,0.501c0.341,0.334 0.512,0.75 0.512,1.245c0,0.475 -0.171,0.885 -0.512,1.23c-0.341,0.345 -0.747,0.517 -1.216,0.517Z" style="fill:#595a5c;fill-rule:nonzero;"/>
      <path d="M107.112,20.595l0,15.655l-2.176,0l0,-2.749c-0.619,0.863 -1.376,1.537 -2.272,2.022c-0.896,0.485 -1.877,0.727 -2.944,0.727c-1.429,0 -2.709,-0.345 -3.84,-1.035c-1.131,-0.69 -2.016,-1.649 -2.656,-2.878c-0.64,-1.229 -0.96,-2.631 -0.96,-4.205c0,-1.553 0.315,-2.938 0.944,-4.156c0.629,-1.219 1.504,-2.173 2.624,-2.863c1.12,-0.69 2.395,-1.035 3.824,-1.035c1.088,0 2.085,0.243 2.992,0.728c0.907,0.485 1.669,1.17 2.288,2.054l0,-2.265l2.176,0Zm-7.456,13.65c1.024,0 1.936,-0.259 2.736,-0.776c0.8,-0.518 1.424,-1.24 1.872,-2.167c0.448,-0.928 0.672,-1.973 0.672,-3.138c0,-1.164 -0.224,-2.21 -0.672,-3.137c-0.448,-0.927 -1.072,-1.65 -1.872,-2.167c-0.8,-0.518 -1.712,-0.777 -2.736,-0.777c-1.003,0 -1.899,0.259 -2.688,0.777c-0.789,0.517 -1.408,1.234 -1.856,2.151c-0.448,0.916 -0.672,1.956 -0.672,3.121c0,1.186 0.224,2.242 0.672,3.17c0.448,0.927 1.067,1.649 1.856,2.167c0.789,0.517 1.685,0.776 2.688,0.776Z" style="fill:#595a5c;fill-rule:nonzero;"/>
      <path d="M117.8,20.078c1.045,0 2.011,0.216 2.896,0.647c0.885,0.431 1.589,1.067 2.112,1.908c0.523,0.841 0.784,1.833 0.784,2.976l0,10.641l-2.176,0l0,-9.671c0,-2.997 -1.323,-4.496 -3.968,-4.496c-1.536,0 -2.688,0.55 -3.456,1.65c-0.768,1.1 -1.152,2.577 -1.152,4.431l0,8.086l-2.176,0l0,-15.655l2.176,0l0,2.523c0.512,-0.97 1.189,-1.719 2.032,-2.248c0.843,-0.528 1.819,-0.792 2.928,-0.792Z" style="fill:#595a5c;fill-rule:nonzero;"/>
    </g>
  </g>
</svg>